:SAMPLES-PER-SECOND 30
:FULLY-SPECIFIED
:DEGREES
1
root  65.9235 40.5015 -2.49534 -109.41 -88.1854 110.333
RightUpLeg  1.33365 -10.1077 -8.78463
RightLeg  3.91588 -10.1092 3.47442
RightFoot  -2.83601 -0.116314 1.28565
RightToes  -1.16417e-010 0 -3.6325e-017
Spine  -0.860628 -1.25532 -2.89612
Spine1  1.46491 -1.51205 1.98219
HEad  7.4899 -0.261144 -0.580103
LeftShoulder1  1.02071 -3.54148 -6.85973
LeftArm  -17.2271 12.0393 -4.81169
LeftForeArm  13.061 -2.01016 -1.40274
LeftHand  -0.244104 0.0205437 5.32207
RightShoulder  0.312242 -0.916457 4.14079
RightArm  -18.8799 1.46429 3.80924
RightForeArm  1.66537 -0.0616784 3.57693
RightHand  -0.482272 -1.18682 -13.2478
LeftUpLeg  3.13739 5.09652 2.73245
LeftLeg  -0.625262 17.4443 -4.65358
LeftFoot  -1.83619 0.0820169 -0.806847
LeftToes  -2.09216e-011 1.96776e-011 -5.83545e-012
2
root  65.9061 40.501 -2.48763 -107.842 -88.1388 108.781
RightUpLeg  1.36443 -10.2151 -8.91727
RightLeg  3.91607 -10.0043 3.54
RightFoot  -2.92265 -0.126659 1.44617
RightToes  -1.16417e-010 0 -3.6325e-017
Spine  -0.895443 -1.32001 -2.88085
Spine1  1.5686 -1.55885 1.88004
HEad  7.48175 -0.299498 -0.59381
LeftShoulder1  1.02163 -3.47961 -6.94894
LeftArm  -17.28 12.0905 -4.76611
LeftForeArm  12.9183 -2.10387 -1.39131
LeftHand  -0.244104 0.0205437 5.32207
RightShoulder  0.321377 -0.8562 4.2213
RightArm  -19.1507 1.48398 3.82643
RightForeArm  1.38766 -0.144519 3.48098
RightHand  -0.439591 -1.65032 -13.5201
LeftUpLeg  3.19146 5.03556 2.63542
LeftLeg  -0.737763 17.4857 -4.66977
LeftFoot  -1.81792 0.0783933 -0.750532
LeftToes  -2.09216e-011 1.96776e-011 -5.83545e-012
3
root  65.8824 40.4921 -2.47119 -101.777 -88.0604 102.699
RightUpLeg  1.42124 -10.4504 -9.18602
RightLeg  4.09074 -9.92476 3.63543
RightFoot  -3.20267 -0.140002 1.66443
RightToes  -1.16417e-010 0 -3.6325e-017
Spine  -0.766916 -1.40957 -2.92102
Spine1  1.64822 -1.62849 1.76581
HEad  7.4782 -0.3774 -0.48095
LeftShoulder1  1.03482 -3.51528 -7.08906
LeftArm  -17.4614 12.1397 -4.7808
LeftForeArm  12.6274 -2.17674 -1.33232
LeftHand  -0.244104 0.0205437 5.32207
RightShoulder  0.313026 -0.952989 4.37138
RightArm  -19.4392 1.48717 3.85749
RightForeArm  0.850877 -0.155213 3.40065
RightHand  -0.384517 -2.2398 -13.9329
LeftUpLeg  3.24389 5.02239 2.52045
LeftLeg  -0.733413 17.3143 -4.74182
LeftFoot  -1.99655 0.0854221 -0.859771
LeftToes  -2.09216e-011 1.96776e-011 -5.83545e-012
4
root  65.8881 40.4544 -2.44713 -92.22 -87.9748 92.9544
RightUpLeg  1.44111 -10.7544 -9.51815
RightLeg  4.7583 -9.89632 3.66352
RightFoot  -3.86667 -0.151244 1.91456
RightToes  -1.16417e-010 0 -3.6325e-017
Spine  -0.023782 -1.46672 -2.97142
Spine1  1.35764 -1.67743 1.67174
HEad  7.32819 -0.526505 -0.324459
LeftShoulder1  1.07646 -3.74449 -7.2137
LeftArm  -17.8072 12.1394 -4.90182
LeftForeArm  12.4068 -2.13775 -1.19665
LeftHand  -0.244104 0.0205437 5.32207
RightShoulder  0.294114 -1.12453 4.47126
RightArm  -19.5268 1.18092 3.9092
RightForeArm  0.449585 0.0546398 3.38994
RightHand  -0.387244 -2.27277 -14.1917
LeftUpLeg  3.03346 5.12629 2.48326
LeftLeg  0.180777 16.8358 -4.63179
LeftFoot  -2.73641 0.111943 -1.28108
LeftToes  -2.09216e-011 1.96776e-011 -5.83545e-012
5
root  65.9469 40.3847 -2.41001 -82.3599 -87.9139 82.6073
RightUpLeg  1.34452 -11.0938 -9.8305
RightLeg  6.16866 -9.80715 3.51237
RightFoot  -4.85393 -0.167825 2.38182
RightToes  -1.16417e-010 0 -3.6325e-017
Spine  1.6011 -1.50275 -2.81477
Spine1  0.640483 -1.69856 1.43086
HEad  7.2556 -0.710354 -0.015751
LeftShoulder1  1.11324 -3.90654 -7.40828
LeftArm  -18.5969 11.9636 -5.21242
LeftForeArm  12.2894 -2.23579 -0.929837
LeftHand  -0.244104 0.0205437 5.32207
RightShoulder  0.302481 -1.08433 4.62849
RightArm  -19.6135 0.330369 4.02549
RightForeArm  -0.421162 0.581332 3.40526
RightHand  -0.483828 -1.63963 -14.8281
LeftUpLeg  2.49261 5.23115 2.45881
LeftLeg  2.3211 16.3094 -4.02627
LeftFoot  -4.04456 0.139978 -1.81511
LeftToes  -2.09216e-011 1.96776e-011 -5.83545e-012
